<svg width="72" height="64" viewBox="0 0 72 64" fill="none" xmlns="http://www.w3.org/2000/svg">
    <g clip-path="url(#clip0_18_2724)" filter="url(#filter0_i_18_2724)">
        <path
            d="M34.5326 17.6873V18.9507H31.9384C31.6857 16.6429 30.7761 14.5205 29.378 12.8023L31.2141 10.9662L31.2309 10.983L32.1237 11.8758L33.9093 10.0902L30.3381 6.51905L28.5525 8.30463L29.4285 9.18057L27.5924 11.0167C25.8742 9.63539 23.7685 8.72576 21.4608 8.47308V5.89578H21.4776H22.741V3.36902H17.6875V5.89578H18.934V8.48992C16.6262 8.7426 14.5206 9.66908 12.8024 11.0504L10.9663 9.21426L10.9831 9.19742L11.8759 8.30463L10.0903 6.51905L6.51917 10.0902L8.30475 11.8758L9.1807 10.9998L11.0168 12.836C9.63551 14.5542 8.72588 16.6429 8.49005 18.9507H5.8959V17.6873H3.36914V22.7409H5.8959V21.4775H8.49005C8.74272 23.7853 9.65236 25.8741 11.0168 27.5923L9.1807 29.4284L8.30475 28.5524L6.51917 30.338L10.0903 33.9092L11.8759 32.1236L10.9831 31.2308L10.9663 31.2139L12.8024 29.3778C14.5206 30.7591 16.6094 31.6688 18.9172 31.9214V34.5156H17.6875V37.0592H22.741V34.5324H21.4776H21.4608V31.9383C23.7685 31.7025 25.8742 30.776 27.5924 29.3947L29.4285 31.2308L28.5525 32.1067L30.3381 33.8923L33.9093 30.3212L32.1237 28.5356L31.2309 29.4284L31.2141 29.4452L29.378 27.6091C30.7593 25.8909 31.6857 23.7853 31.9384 21.4606H34.5326V22.724H37.0593V17.6705H34.5326V17.6873ZM23.1621 13.4761C24.0886 13.4761 24.8466 14.2341 24.8466 15.1606C24.8466 16.0871 24.0886 16.8451 23.1621 16.8451C22.2356 16.8451 21.4776 16.0871 21.4776 15.1606C21.4776 14.2341 22.2356 13.4761 23.1621 13.4761ZM17.2663 13.4761C18.1928 13.4761 18.9508 14.2341 18.9508 15.1606C18.9508 16.0871 18.1928 16.8451 17.2663 16.8451C16.3399 16.8451 15.5818 16.0871 15.5818 15.1606C15.5818 14.2341 16.3399 13.4761 17.2663 13.4761ZM14.3184 21.8986C13.392 21.8986 12.6339 21.1406 12.6339 20.2141C12.6339 19.2876 13.392 18.5296 14.3184 18.5296C15.2449 18.5296 16.003 19.2876 16.003 20.2141C16.003 21.1406 15.2449 21.8986 14.3184 21.8986ZM17.2663 26.9521C16.3399 26.9521 15.5818 26.1941 15.5818 25.2676C15.5818 24.3412 16.3399 23.5831 17.2663 23.5831C18.1928 23.5831 18.9508 24.3412 18.9508 25.2676C18.9508 26.1941 18.1928 26.9521 17.2663 26.9521ZM20.2142 21.8986C19.2877 21.8986 18.5297 21.1406 18.5297 20.2141C18.5297 19.2876 19.2877 18.5296 20.2142 18.5296C21.1407 18.5296 21.8987 19.2876 21.8987 20.2141C21.8987 21.1406 21.1407 21.8986 20.2142 21.8986ZM23.1621 26.9521C22.2356 26.9521 21.4776 26.1941 21.4776 25.2676C21.4776 24.3412 22.2356 23.5831 23.1621 23.5831C24.0886 23.5831 24.8466 24.3412 24.8466 25.2676C24.8466 26.1941 24.0886 26.9521 23.1621 26.9521ZM26.11 21.8986C25.1835 21.8986 24.4255 21.1406 24.4255 20.2141C24.4255 19.2876 25.1835 18.5296 26.11 18.5296C27.0365 18.5296 27.7945 19.2876 27.7945 20.2141C27.7945 21.1406 27.0365 21.8986 26.11 21.8986Z"
            fill="#951818" />
    </g>
    <path
        d="M47.0822 38.6061L45.4754 38.1756L45.053 37.4738C47.6675 35.6893 49.6741 33.0006 50.5515 29.7261C52.508 22.4244 48.1753 14.9199 40.8736 12.9634C33.5719 11.007 26.0674 15.3397 24.111 22.6414C22.1545 29.943 26.4872 37.4475 33.7889 39.404C37.0634 40.2814 40.3951 39.888 43.2478 38.516L43.6444 39.2327L43.2139 40.8394L50.6639 53.7134L54.5064 51.495L47.0822 38.6061ZM34.8788 35.3362C29.8144 33.9792 26.8217 28.7957 28.1787 23.7313C29.5357 18.6669 34.7193 15.6742 39.7836 17.0312C44.848 18.3882 47.8407 23.5717 46.4837 28.6361C45.1267 33.7005 39.9432 36.6932 34.8788 35.3362Z"
        fill="black" />
    <defs>
        <filter id="filter0_i_18_2724" x="0" y="0" width="40.4282" height="44.4282" filterUnits="userSpaceOnUse"
            color-interpolation-filters="sRGB">
            <feFlood flood-opacity="0" result="BackgroundImageFix" />
            <feBlend mode="normal" in="SourceGraphic" in2="BackgroundImageFix" result="shape" />
            <feColorMatrix in="SourceAlpha" type="matrix" values="0 0 0 0 0 0 0 0 0 0 0 0 0 0 0 0 0 0 127 0"
                result="hardAlpha" />
            <feOffset dy="4" />
            <feGaussianBlur stdDeviation="2" />
            <feComposite in2="hardAlpha" operator="arithmetic" k2="-1" k3="1" />
            <feColorMatrix type="matrix" values="0 0 0 0 0 0 0 0 0 0 0 0 0 0 0 0 0 0 0.25 0" />
            <feBlend mode="normal" in2="shape" result="effect1_innerShadow_18_2724" />
        </filter>
        <clipPath id="clip0_18_2724">
            <rect width="40.4282" height="40.4282" fill="white" />
        </clipPath>
    </defs>
</svg>